<svg width="32" height="32" viewBox="0 0 32 32" fill="none" xmlns="http://www.w3.org/2000/svg">
  <circle cx="16" cy="16" r="16" fill="#8247E5"/>
  <path d="M21.1438 12.2561C20.7848 12.0472 20.3207 12.0472 19.9258 12.2561L17.0772 13.9657L15.1077 15.0475L12.2591 16.7571C11.9001 16.966 11.436 16.966 11.0411 16.7571L8.84342 15.5707C8.48446 15.3618 8.24799 14.9791 8.24799 14.5614V12.2236C8.24799 11.8059 8.44847 11.4232 8.84342 11.2143L11.0052 10.0628C11.3642 9.85392 11.8283 9.85392 12.2232 10.0628L14.385 11.2143C14.744 11.4232 14.9804 11.8059 14.9804 12.2236V13.9332L16.95 12.8515V11.1419C16.95 10.7242 16.7495 10.3415 16.3545 10.1326L12.2232 7.79432C11.8642 7.58544 11.4001 7.58544 11.0052 7.79432L6.80985 10.1326C6.4149 10.3415 6.21442 10.7242 6.21442 11.1419V15.6434C6.21442 16.0611 6.4149 16.4438 6.80985 16.6527L11.0052 18.991C11.3642 19.1999 11.8283 19.1999 12.2232 18.991L15.0719 17.3163L17.0414 16.2346L19.89 14.5599C20.249 14.351 20.7131 14.351 21.108 14.5599L23.2698 15.7114C23.6288 15.9203 23.8652 16.303 23.8652 16.7207V19.0585C23.8652 19.4762 23.6647 19.8589 23.2698 20.0678L21.108 21.2542C20.749 21.4631 20.2849 21.4631 19.89 21.2542L17.7282 20.1027C17.3692 19.8938 17.1328 19.5111 17.1328 19.0934V17.3838L15.1632 18.4655V20.1751C15.1632 20.5928 15.3637 20.9755 15.7587 21.1844L19.9258 23.5227C20.2848 23.7316 20.7489 23.7316 21.1438 23.5227L25.3392 21.1844C25.6981 20.9755 25.9346 20.5928 25.9346 20.1751V15.6736C25.9346 15.2559 25.7341 14.8732 25.3392 14.6643L21.1438 12.2561Z" fill="white"/>
</svg>